<svg width="521" height="137" viewBox="0 0 521 137" fill="none" xmlns="http://www.w3.org/2000/svg">
<path d="M32.3809 71.4033C32.3809 74.8444 33.1418 77.923 34.6631 80.6396C36.1843 83.3199 38.2846 85.4211 40.9648 86.9424C43.6815 88.4637 46.7611 89.2246 50.2021 89.2246C53.6792 89.2245 56.7582 88.4636 59.4385 86.9424C62.1188 85.4211 64.2199 83.32 65.7412 80.6396C67.2624 77.9231 68.0225 74.8442 68.0225 71.4033V2.72754H98.2314V74.0117C98.2314 82.4873 96.2031 89.8219 92.1465 96.0156C91.9295 96.3479 91.7067 96.6758 91.4805 97H8.81445C8.58818 96.6758 8.36543 96.348 8.14844 96.0156C4.16423 89.8219 2.17193 82.4873 2.17188 74.0117V2.72754H32.3809V71.4033ZM160.619 2.72754C168.877 2.7276 176.103 4.35742 182.297 7.61719C188.491 10.8771 193.309 15.4592 196.75 21.3633C200.191 27.2673 201.911 34.1674 201.911 42.0635C201.911 50.0322 200.137 56.933 196.587 62.7646C193.073 68.5963 188.129 73.088 181.754 76.2393C175.415 79.3905 168.008 80.9658 159.532 80.9658H142.798V97H112.589V2.72754H160.619ZM243.204 47.7148H244.726L278.194 2.72754H313.401L275.804 52.2783L303.676 97H268.012L253.201 72.2725L243.204 85.3125V97H212.995V2.72754H243.204V47.7148ZM142.798 57.4941H153.447C156.997 57.4941 160.021 56.8789 162.521 55.6475C165.056 54.3798 166.994 52.5866 168.334 50.2686C169.71 47.9504 170.398 45.2148 170.398 42.0635C170.398 38.8762 169.71 36.1597 168.334 33.9141C166.994 31.6322 165.056 29.8936 162.521 28.6982C160.021 27.4668 156.997 26.8506 153.447 26.8506H142.798V57.4941Z" fill="black"/>
<line x1="9" y1="103" x2="509" y2="103" stroke="black" stroke-width="6"/>
<path d="M20.4545 111.545H25.1932V122.727C25.1932 124.057 24.875 125.207 24.2386 126.179C23.608 127.145 22.7273 127.892 21.5966 128.42C20.4659 128.943 19.1534 129.205 17.6591 129.205C16.1534 129.205 14.8352 128.943 13.7045 128.42C12.5739 127.892 11.6932 127.145 11.0625 126.179C10.4375 125.207 10.125 124.057 10.125 122.727V111.545H14.8636V122.318C14.8636 122.858 14.983 123.341 15.2216 123.767C15.4602 124.187 15.7898 124.517 16.2102 124.756C16.6364 124.994 17.1193 125.114 17.6591 125.114C18.2045 125.114 18.6875 124.994 19.108 124.756C19.5284 124.517 19.858 124.187 20.0966 123.767C20.3352 123.341 20.4545 122.858 20.4545 122.318V111.545ZM28.9535 129V126.375L37.2035 115.364H28.9876V111.545H43.2376V114.17L34.9876 125.182H43.2035V129H28.9535ZM62.0916 111.545V129H58.1371L51.8303 119.83H51.728V129H46.9894V111.545H51.0121L57.2166 120.682H57.353V111.545H62.0916ZM51.3701 134.455L52.4951 130.381H56.7223L54.5746 134.455H51.3701ZM65.7731 129V111.545H78.3527V115.364H70.5118V118.364H77.7049V122.182H70.5118V125.182H78.3186V129H65.7731ZM76.3754 107.182V109.33H67.8527V107.182H76.3754ZM82.1428 111.545H88.0405L92.0974 121.432H92.3019L96.3587 111.545H102.256V129H97.6201V118.909H97.4837L93.5974 128.864H90.8019L86.9155 118.841H86.7792V129H82.1428V111.545ZM116.272 111.545H121.01V122.727C121.01 124.057 120.692 125.207 120.056 126.179C119.425 127.145 118.544 127.892 117.414 128.42C116.283 128.943 114.971 129.205 113.476 129.205C111.971 129.205 110.652 128.943 109.522 128.42C108.391 127.892 107.51 127.145 106.88 126.179C106.255 125.207 105.942 124.057 105.942 122.727V111.545H110.681V122.318C110.681 122.858 110.8 123.341 111.039 123.767C111.277 124.187 111.607 124.517 112.027 124.756C112.454 124.994 112.937 125.114 113.476 125.114C114.022 125.114 114.505 124.994 114.925 124.756C115.346 124.517 115.675 124.187 115.914 123.767C116.152 123.341 116.272 122.858 116.272 122.318V111.545ZM124.702 111.545H130.6L134.657 121.432H134.862L138.918 111.545H144.816V129H140.18V118.909H140.043L136.157 128.864H133.362L129.475 118.841H129.339V129H124.702V111.545ZM153.036 129H147.922L153.684 111.545H160.161L165.922 129H160.809L156.991 116.352H156.854L153.036 129ZM152.081 122.114H161.695V125.659H152.081V122.114ZM175.265 129V111.545H182.799C184.094 111.545 185.228 111.801 186.199 112.312C187.171 112.824 187.927 113.543 188.466 114.469C189.006 115.395 189.276 116.477 189.276 117.716C189.276 118.966 188.998 120.048 188.441 120.963C187.89 121.878 187.114 122.582 186.114 123.077C185.12 123.571 183.958 123.818 182.628 123.818H178.128V120.136H181.674C182.231 120.136 182.705 120.04 183.097 119.847C183.495 119.648 183.799 119.366 184.009 119.003C184.225 118.639 184.333 118.21 184.333 117.716C184.333 117.216 184.225 116.79 184.009 116.438C183.799 116.08 183.495 115.807 183.097 115.619C182.705 115.426 182.231 115.33 181.674 115.33H180.003V129H175.265ZM192.455 129V111.545H205.034V115.364H197.193V118.364H204.387V122.182H197.193V125.182H205V129H192.455ZM208.824 129V111.545H216.358C217.654 111.545 218.787 111.781 219.759 112.253C220.731 112.724 221.486 113.403 222.026 114.29C222.566 115.176 222.836 116.239 222.836 117.477C222.836 118.727 222.557 119.781 222.001 120.639C221.449 121.497 220.674 122.145 219.674 122.582C218.679 123.02 217.518 123.239 216.188 123.239H211.688V119.557H215.233C215.79 119.557 216.265 119.489 216.657 119.352C217.054 119.21 217.358 118.986 217.569 118.679C217.785 118.372 217.893 117.972 217.893 117.477C217.893 116.977 217.785 116.571 217.569 116.259C217.358 115.94 217.054 115.707 216.657 115.56C216.265 115.406 215.79 115.33 215.233 115.33H213.563V129H208.824ZM219.052 120.989L223.415 129H218.268L214.006 120.989H219.052ZM235.705 117C235.659 116.432 235.446 115.989 235.066 115.67C234.691 115.352 234.119 115.193 233.352 115.193C232.864 115.193 232.463 115.253 232.151 115.372C231.844 115.486 231.617 115.642 231.469 115.841C231.321 116.04 231.244 116.267 231.239 116.523C231.227 116.733 231.264 116.923 231.35 117.094C231.441 117.259 231.583 117.409 231.776 117.545C231.969 117.676 232.216 117.795 232.517 117.903C232.818 118.011 233.176 118.108 233.591 118.193L235.023 118.5C235.989 118.705 236.816 118.974 237.503 119.31C238.191 119.645 238.753 120.04 239.191 120.494C239.628 120.943 239.949 121.449 240.154 122.011C240.364 122.574 240.472 123.187 240.477 123.852C240.472 125 240.185 125.972 239.617 126.767C239.048 127.562 238.236 128.168 237.179 128.582C236.128 128.997 234.864 129.205 233.387 129.205C231.869 129.205 230.546 128.98 229.415 128.531C228.29 128.082 227.415 127.392 226.79 126.46C226.171 125.523 225.858 124.324 225.852 122.864H230.352C230.381 123.398 230.514 123.847 230.753 124.21C230.992 124.574 231.327 124.849 231.759 125.037C232.196 125.224 232.716 125.318 233.318 125.318C233.824 125.318 234.247 125.256 234.588 125.131C234.929 125.006 235.188 124.832 235.364 124.611C235.54 124.389 235.631 124.136 235.637 123.852C235.631 123.585 235.543 123.352 235.372 123.153C235.208 122.949 234.935 122.767 234.554 122.608C234.173 122.443 233.659 122.29 233.012 122.148L231.273 121.773C229.727 121.437 228.509 120.878 227.617 120.094C226.73 119.304 226.29 118.227 226.296 116.864C226.29 115.756 226.585 114.787 227.182 113.957C227.784 113.122 228.617 112.472 229.679 112.006C230.747 111.54 231.972 111.307 233.352 111.307C234.762 111.307 235.98 111.543 237.009 112.014C238.037 112.486 238.83 113.151 239.387 114.009C239.949 114.861 240.233 115.858 240.239 117H235.705ZM260.629 120.273C260.629 122.216 260.251 123.855 259.496 125.19C258.74 126.52 257.72 127.528 256.436 128.216C255.152 128.898 253.72 129.239 252.14 129.239C250.55 129.239 249.112 128.895 247.828 128.207C246.55 127.514 245.533 126.503 244.777 125.173C244.027 123.838 243.652 122.205 243.652 120.273C243.652 118.33 244.027 116.693 244.777 115.364C245.533 114.028 246.55 113.02 247.828 112.338C249.112 111.651 250.55 111.307 252.14 111.307C253.72 111.307 255.152 111.651 256.436 112.338C257.72 113.02 258.74 114.028 259.496 115.364C260.251 116.693 260.629 118.33 260.629 120.273ZM255.754 120.273C255.754 119.227 255.615 118.347 255.336 117.631C255.064 116.909 254.658 116.364 254.118 115.994C253.584 115.619 252.925 115.432 252.14 115.432C251.356 115.432 250.694 115.619 250.155 115.994C249.621 116.364 249.214 116.909 248.936 117.631C248.663 118.347 248.527 119.227 248.527 120.273C248.527 121.318 248.663 122.202 248.936 122.923C249.214 123.639 249.621 124.185 250.155 124.56C250.694 124.929 251.356 125.114 252.14 125.114C252.925 125.114 253.584 124.929 254.118 124.56C254.658 124.185 255.064 123.639 255.336 122.923C255.615 122.202 255.754 121.318 255.754 120.273ZM279.364 111.545V129H275.409L269.102 119.83H269V129H264.262V111.545H268.284L274.489 120.682H274.625V111.545H279.364ZM287.579 129H282.466L288.227 111.545H294.704L300.466 129H295.352L291.534 116.352H291.398L287.579 129ZM286.625 122.114H296.239V125.659H286.625V122.114ZM295.727 107.182V109.33H287.204V107.182H295.727ZM303.587 129V111.545H308.326V125.182H315.382V129H303.587ZM323.272 129H318.158L323.92 111.545H330.397L336.158 129H331.045L327.226 116.352H327.09L323.272 129ZM322.317 122.114H331.931V125.659H322.317V122.114ZM345.501 129V111.545H350.239V118.602H350.478L355.728 111.545H361.251L355.353 119.318L361.387 129H355.728L351.807 122.455L350.239 124.5V129H345.501ZM368.631 129H363.517L369.279 111.545H375.756L381.517 129H376.404L372.585 116.352H372.449L368.631 129ZM367.676 122.114H377.29V125.659H367.676V122.114ZM384.638 129V111.545H392.173C393.468 111.545 394.601 111.781 395.573 112.253C396.545 112.724 397.3 113.403 397.84 114.29C398.38 115.176 398.65 116.239 398.65 117.477C398.65 118.727 398.371 119.781 397.815 120.639C397.263 121.497 396.488 122.145 395.488 122.582C394.494 123.02 393.332 123.239 392.002 123.239H387.502V119.557H391.048C391.604 119.557 392.079 119.489 392.471 119.352C392.869 119.21 393.173 118.986 393.383 118.679C393.599 118.372 393.707 117.972 393.707 117.477C393.707 116.977 393.599 116.571 393.383 116.259C393.173 115.94 392.869 115.707 392.471 115.56C392.079 115.406 391.604 115.33 391.048 115.33H389.377V129H384.638ZM394.866 120.989L399.229 129H394.082L389.82 120.989H394.866ZM401.632 115.364V111.545H416.803V115.364H411.553V129H406.882V115.364H401.632ZM436.115 120.273C436.115 122.216 435.737 123.855 434.982 125.19C434.226 126.52 433.206 127.528 431.922 128.216C430.638 128.898 429.206 129.239 427.626 129.239C426.035 129.239 424.598 128.895 423.314 128.207C422.035 127.514 421.018 126.503 420.263 125.173C419.513 123.838 419.138 122.205 419.138 120.273C419.138 118.33 419.513 116.693 420.263 115.364C421.018 114.028 422.035 113.02 423.314 112.338C424.598 111.651 426.035 111.307 427.626 111.307C429.206 111.307 430.638 111.651 431.922 112.338C433.206 113.02 434.226 114.028 434.982 115.364C435.737 116.693 436.115 118.33 436.115 120.273ZM431.24 120.273C431.24 119.227 431.101 118.347 430.822 117.631C430.55 116.909 430.143 116.364 429.604 115.994C429.07 115.619 428.41 115.432 427.626 115.432C426.842 115.432 426.18 115.619 425.641 115.994C425.107 116.364 424.7 116.909 424.422 117.631C424.149 118.347 424.013 119.227 424.013 120.273C424.013 121.318 424.149 122.202 424.422 122.923C424.7 123.639 425.107 124.185 425.641 124.56C426.18 124.929 426.842 125.114 427.626 125.114C428.41 125.114 429.07 124.929 429.604 124.56C430.143 124.185 430.55 123.639 430.822 122.923C431.101 122.202 431.24 121.318 431.24 120.273ZM438.45 115.364V111.545H453.62V115.364H448.37V129H443.7V115.364H438.45ZM456.844 129V111.545H469.423V115.364H461.582V118.364H468.776V122.182H461.582V125.182H469.389V129H456.844ZM467.446 107.182V109.33H458.923V107.182H467.446ZM473.213 129V111.545H477.952V118.602H478.191L483.441 111.545H488.963L483.066 119.318L489.1 129H483.441L479.52 122.455L477.952 124.5V129H473.213ZM496.344 129H491.23L496.992 111.545H503.469L509.23 129H504.117L500.298 116.352H500.162L496.344 129ZM495.389 122.114H505.003V125.659H495.389V122.114Z" fill="black"/>
</svg>
